<svg id="visual" viewBox="0 0 900 450" width="900" height="450" xmlns="http://www.w3.org/2000/svg" xmlns:xlink="http://www.w3.org/1999/xlink" version="1.1"><rect x="0" y="0" width="900" height="450" fill="#ffffff"></rect><path d="M0 337L30 339.8C60 342.7 120 348.3 180 343.5C240 338.7 300 323.3 360 319.3C420 315.3 480 322.7 540 328.8C600 335 660 340 720 338C780 336 840 327 870 322.5L900 318L900 451L870 451C840 451 780 451 720 451C660 451 600 451 540 451C480 451 420 451 360 451C300 451 240 451 180 451C120 451 60 451 30 451L0 451Z" fill="#a3fa69"></path><path d="M0 363L30 362C60 361 120 359 180 360.5C240 362 300 367 360 362.7C420 358.3 480 344.7 540 340.7C600 336.7 660 342.3 720 342.8C780 343.3 840 338.7 870 336.3L900 334L900 451L870 451C840 451 780 451 720 451C660 451 600 451 540 451C480 451 420 451 360 451C300 451 240 451 180 451C120 451 60 451 30 451L0 451Z" fill="#8aed5d"></path><path d="M0 362L30 360.8C60 359.7 120 357.3 180 357.2C240 357 300 359 360 365.5C420 372 480 383 540 385.2C600 387.3 660 380.7 720 376.8C780 373 840 372 870 371.5L900 371L900 451L870 451C840 451 780 451 720 451C660 451 600 451 540 451C480 451 420 451 360 451C300 451 240 451 180 451C120 451 60 451 30 451L0 451Z" fill="#6fe051"></path><path d="M0 388L30 388.2C60 388.3 120 388.7 180 392.7C240 396.7 300 404.3 360 407.7C420 411 480 410 540 410.2C600 410.3 660 411.7 720 412.5C780 413.3 840 413.7 870 413.8L900 414L900 451L870 451C840 451 780 451 720 451C660 451 600 451 540 451C480 451 420 451 360 451C300 451 240 451 180 451C120 451 60 451 30 451L0 451Z" fill="#50d446"></path><path d="M0 422L30 421.5C60 421 120 420 180 417.5C240 415 300 411 360 412.5C420 414 480 421 540 421.5C600 422 660 416 720 415.8C780 415.7 840 421.3 870 424.2L900 427L900 451L870 451C840 451 780 451 720 451C660 451 600 451 540 451C480 451 420 451 360 451C300 451 240 451 180 451C120 451 60 451 30 451L0 451Z" fill="#24c73b"></path></svg>