<svg id="visual" viewBox="0 0 900 675" width="900" height="675" xmlns="http://www.w3.org/2000/svg" xmlns:xlink="http://www.w3.org/1999/xlink" version="1.1"><rect x="0" y="0" width="900" height="675" fill="#ffffff"></rect><path d="M0 505L30 509.3C60 513.7 120 522.3 180 515.3C240 508.3 300 485.7 360 479.8C420 474 480 485 540 494.2C600 503.3 660 510.7 720 507.5C780 504.3 840 490.7 870 483.8L900 477L900 676L870 676C840 676 780 676 720 676C660 676 600 676 540 676C480 676 420 676 360 676C300 676 240 676 180 676C120 676 60 676 30 676L0 676Z" fill="#a3fa69"></path><path d="M0 545L30 543.5C60 542 120 539 180 541.2C240 543.3 300 550.7 360 544.2C420 537.7 480 517.3 540 511.3C600 505.3 660 513.7 720 514.5C780 515.3 840 508.7 870 505.3L900 502L900 676L870 676C840 676 780 676 720 676C660 676 600 676 540 676C480 676 420 676 360 676C300 676 240 676 180 676C120 676 60 676 30 676L0 676Z" fill="#8aed5d"></path><path d="M0 544L30 542.2C60 540.3 120 536.7 180 536.3C240 536 300 539 360 548.7C420 558.3 480 574.7 540 578C600 581.3 660 571.7 720 566C780 560.3 840 558.7 870 557.8L900 557L900 676L870 676C840 676 780 676 720 676C660 676 600 676 540 676C480 676 420 676 360 676C300 676 240 676 180 676C120 676 60 676 30 676L0 676Z" fill="#6fe051"></path><path d="M0 582L30 582.3C60 582.7 120 583.3 180 589.3C240 595.3 300 606.7 360 611.8C420 617 480 616 540 616.3C600 616.7 660 618.3 720 619.3C780 620.3 840 620.7 870 620.8L900 621L900 676L870 676C840 676 780 676 720 676C660 676 600 676 540 676C480 676 420 676 360 676C300 676 240 676 180 676C120 676 60 676 30 676L0 676Z" fill="#50d446"></path><path d="M0 634L30 633.2C60 632.3 120 630.7 180 626.8C240 623 300 617 360 619.3C420 621.7 480 632.3 540 633.2C600 634 660 625 720 624.7C780 624.3 840 632.7 870 636.8L900 641L900 676L870 676C840 676 780 676 720 676C660 676 600 676 540 676C480 676 420 676 360 676C300 676 240 676 180 676C120 676 60 676 30 676L0 676Z" fill="#24c73b"></path></svg>