<svg id="visual" viewBox="0 0 900 600" width="900" height="600" xmlns="http://www.w3.org/2000/svg" xmlns:xlink="http://www.w3.org/1999/xlink" version="1.1"><rect x="0" y="0" width="900" height="600" fill="#0d8200"></rect><path d="M0 273L16.7 272.3C33.3 271.7 66.7 270.3 100 269.5C133.3 268.7 166.7 268.3 200 259.7C233.3 251 266.7 234 300 221.3C333.3 208.7 366.7 200.3 400 198.3C433.3 196.3 466.7 200.7 500 207.8C533.3 215 566.7 225 600 218.5C633.3 212 666.7 189 700 197C733.3 205 766.7 244 800 256.5C833.3 269 866.7 255 883.3 248L900 241L900 0L883.3 0C866.7 0 833.3 0 800 0C766.7 0 733.3 0 700 0C666.7 0 633.3 0 600 0C566.7 0 533.3 0 500 0C466.7 0 433.3 0 400 0C366.7 0 333.3 0 300 0C266.7 0 233.3 0 200 0C166.7 0 133.3 0 100 0C66.7 0 33.3 0 16.7 0L0 0Z" fill="#FFFFFF" stroke-linecap="round" stroke-linejoin="miter"></path></svg>